<svg width="64" height="64" viewBox="0 0 64 64" fill="none" xmlns="http://www.w3.org/2000/svg">
  <rect width="64" height="64" rx="18" fill="#F3FCFA"/>
  <path d="M32 12C24.8 12 19 17.8 19 25C19 33.8 32 48 32 48C32 48 45 33.8 45 25C45 17.8 39.2 12 32 12Z" fill="url(#paint0_linear)"/>
  <path d="M28 23C28 20.8 29.8 19 32 19C34.2 19 36 20.8 36 23C36 25.2 34.2 27 32 27C29.8 27 28 25.2 28 23Z" fill="#FFFFFF"/>
  <path d="M25 38H39" stroke="#0F7A7A" stroke-width="3" stroke-linecap="round"/>
  <defs>
    <linearGradient id="paint0_linear" x1="20" y1="15" x2="44" y2="46" gradientUnits="userSpaceOnUse">
      <stop stop-color="#0F7A7A"/>
      <stop offset="1" stop-color="#2FB67F"/>
    </linearGradient>
  </defs>
</svg>
